<svg width="41" height="40" viewBox="0 0 41 40" fill="none" xmlns="http://www.w3.org/2000/svg">
  <g clipPath="url(#clip0)">
    <path d="M33.147 36.9365H7.26465V39.8777H33.147V36.9365Z" fill="#333333" />
    <path
      d="M24.8629 13.2598H15.7944C14.9821 13.2598 14.3237 13.9181 14.3237 14.7304C14.3237 15.5427 14.9821 16.201 15.7944 16.201H24.8629C25.6752 16.201 26.3336 15.5427 26.3336 14.7304C26.3336 13.9181 25.6752 13.2598 24.8629 13.2598Z"
      fill="#333333"
    />
    <path
      d="M31.7257 20.1226H15.7944C14.9821 20.1226 14.3237 20.7809 14.3237 21.5932C14.3237 22.4054 14.9821 23.0638 15.7944 23.0638H31.7258C32.538 23.0638 33.1963 22.4054 33.1963 21.5932C33.1963 20.7809 32.5379 20.1226 31.7257 20.1226Z"
      fill="#333333"
    />
    <path
      d="M39.6334 0.30166C39.1054 0.0643945 38.4883 0.158066 38.0549 0.540879L33.9368 4.184L29.8138 0.497207C29.2554 -0.00232424 28.4113 -0.00232424 27.853 0.497207L23.7353 4.17955L19.6172 0.497207C19.0588 -0.00232424 18.2152 -0.00232424 17.6569 0.497207L13.5338 4.184L9.4157 0.540879C8.98289 0.158535 8.36523 0.0648633 7.83727 0.30166C7.30984 0.539395 6.97062 1.06393 6.97062 1.64236V27.8188H1.97062C1.15836 27.8188 0.5 28.4771 0.5 29.2894V32.8678C0.5 36.733 3.64461 39.8776 7.50977 39.8776V36.9364C5.26617 36.9364 3.44117 35.111 3.44117 32.8678V30.76H26.4804V32.8678C26.4804 36.733 29.625 39.8777 33.4902 39.8777C37.3553 39.8777 40.4999 36.7331 40.4999 32.8679V1.64229C40.5 1.06385 40.1608 0.539395 39.6334 0.30166ZM37.5588 32.8678C37.5588 35.111 35.7334 36.9364 33.4902 36.9364C31.2471 36.9364 29.4216 35.111 29.4216 32.8678V29.2894C29.4216 28.4771 28.7633 27.8188 27.951 27.8188H9.9118V4.9065L12.5652 7.25408C13.1241 7.74822 13.9642 7.74572 14.5196 7.24869L18.6373 3.56635L22.7549 7.24822C23.3133 7.74775 24.1573 7.74775 24.7157 7.24822L28.8338 3.56588L32.9515 7.24822C33.5073 7.74525 34.3476 7.74721 34.9059 7.25361L37.5588 4.90658V32.8678Z"
      fill="#333333"
    />
  </g>
  <defs>
    <clipPath id="clip0">
      <rect width="40" height="40" fill="white" transform="translate(0.5)" />
    </clipPath>
  </defs>
</svg>
