<svg width="40" height="40" viewBox="0 0 40 40" fill="none" xmlns="http://www.w3.org/2000/svg">
  <rect width="40" height="40" rx="3.2" fill="#ED8816" />
  <path
    d="M7.29297 35.0547C8.16406 35.0547 9.01172 34.7734 9.52734 34.3516V31.9023H7.16406V32.8672H8.44141V33.707C8.07812 33.9336 7.69922 34.0273 7.28906 34.0273C6.22266 34.0273 5.5625 33.2109 5.5625 32.168C5.5625 31.0078 6.30859 30.3086 7.24219 30.3086C7.86719 30.3086 8.35156 30.5586 8.70312 30.8984L9.5 30.2227C8.91406 29.5625 8.04688 29.25 7.24219 29.25C5.46875 29.25 4.39062 30.5078 4.39062 32.168C4.39062 33.9883 5.65234 35.0547 7.28906 35.0547H7.29297ZM11.7891 35H12.9102V30.3281H14.4844V29.3203H10.2227V30.3281H11.7891V35ZM18.3984 31.9922V31.9766C19.0117 31.7383 19.2461 31.2148 19.2461 30.707C19.2461 29.8047 18.6016 29.3203 17.3945 29.3203H15.3438V35H17.6953C18.9375 35 19.5391 34.3438 19.5391 33.4336C19.5391 32.6836 19.125 32.1758 18.3984 31.9922ZM16.4453 30.3164H17.1758C17.832 30.3125 18.1055 30.582 18.1055 30.9766C18.1055 31.4453 17.6992 31.6484 17.25 31.6484H16.4453V30.3164ZM17.3516 34.0156H16.4453V32.5547H17.3633C18.0312 32.5547 18.3633 32.8477 18.3633 33.293C18.3633 33.7773 17.9531 34.0117 17.3516 34.0156ZM23.1914 31.0938V31.5391H23.1719C22.8828 31.2031 22.4805 31.0273 22.0195 31.0273C20.9727 31.0273 20.1797 31.8711 20.1797 33.0586C20.1797 34.2656 20.9688 35.0664 22.0547 35.0664C22.5547 35.0664 22.9492 34.875 23.2188 34.5273H23.2383V35H24.2383V31.0938H23.1914ZM22.2461 34.1289C21.6602 34.1289 21.2461 33.6953 21.2461 33.0625C21.2461 32.3945 21.6875 31.9688 22.25 31.9688C22.8164 31.9688 23.2344 32.4375 23.2344 33.0625C23.2344 33.7031 22.7852 34.1289 22.2422 34.1289H22.2461ZM27.5742 31.0273C27.0938 31.0273 26.6406 31.2266 26.3203 31.6016H26.3086V31.0977H25.2617V35.0039H26.3086V33.0391C26.3086 32.3438 26.6641 31.9727 27.1953 31.9727C27.6797 31.9727 27.9453 32.2031 27.9453 32.9492V35.0078H28.9922V32.6875C28.9922 31.4844 28.4102 31.0312 27.5742 31.0312V31.0273ZM31.6016 33.4492L32.5312 35H33.6992L32.2969 32.6523L33.6758 31.0938H32.4492L31.0547 32.668H31.0391V29.1133H29.9922V35H31.0391V34.0703L31.5898 33.4492H31.6016Z"
    fill="white"
  />
  <rect x="5" y="5" width="12" height="12" fill="white" />
</svg>
