<svg width="80" height="80" viewBox="0 0 80 80" fill="none" xmlns="http://www.w3.org/2000/svg">
  <rect width="80" height="80" rx="40" fill="#EDFFED" />
  <g clipPath="url(#clip0)">
    <path
      d="M46.6668 55.9997C42.1415 55.9997 37.3335 54.597 37.3335 51.9997C37.3335 51.6317 37.6322 51.333 38.0002 51.333C38.3682 51.333 38.6668 51.6317 38.6668 51.9997C38.6668 53.113 41.7095 54.6664 46.6668 54.6664C51.6242 54.6664 54.6668 53.113 54.6668 51.9997C54.6668 51.6317 54.9655 51.333 55.3335 51.333C55.7015 51.333 56.0002 51.6317 56.0002 51.9997C56.0002 54.597 51.1922 55.9997 46.6668 55.9997Z"
      fill="#3D663D"
    />
    <path
      d="M46.6668 51.9997C42.1415 51.9997 37.3335 50.597 37.3335 47.9997C37.3335 47.6317 37.6322 47.333 38.0002 47.333C38.3682 47.333 38.6668 47.6317 38.6668 47.9997C38.6668 49.113 41.7095 50.6664 46.6668 50.6664C51.6242 50.6664 54.6668 49.113 54.6668 47.9997C54.6668 47.6317 54.9655 47.333 55.3335 47.333C55.7015 47.333 56.0002 47.6317 56.0002 47.9997C56.0002 50.597 51.1922 51.9997 46.6668 51.9997Z"
      fill="#3D663D"
    />
    <path
      d="M46.6668 48C42.1415 48 37.3335 46.5973 37.3335 44C37.3335 41.4027 42.1415 40 46.6668 40C51.1922 40 56.0002 41.4027 56.0002 44C56.0002 46.5973 51.1922 48 46.6668 48ZM46.6668 41.3333C41.7095 41.3333 38.6668 42.8867 38.6668 44C38.6668 45.1133 41.7095 46.6667 46.6668 46.6667C51.6242 46.6667 54.6668 45.1133 54.6668 44C54.6668 42.8867 51.6242 41.3333 46.6668 41.3333Z"
      fill="#3D663D"
    />
    <path
      d="M55.3332 52.6663C54.9652 52.6663 54.6665 52.3677 54.6665 51.9997V43.9997C54.6665 43.6317 54.9652 43.333 55.3332 43.333C55.7012 43.333 55.9999 43.6317 55.9999 43.9997V51.9997C55.9999 52.3677 55.7012 52.6663 55.3332 52.6663Z"
      fill="#3D663D"
    />
    <path
      d="M38.0002 52.6663C37.6322 52.6663 37.3335 52.3677 37.3335 51.9997V43.9997C37.3335 43.6317 37.6322 43.333 38.0002 43.333C38.3682 43.333 38.6668 43.6317 38.6668 43.9997V51.9997C38.6668 52.3677 38.3682 52.6663 38.0002 52.6663Z"
      fill="#3D663D"
    />
    <path
      d="M33.3333 39.9997C28.808 39.9997 24 38.597 24 35.9997C24 35.6317 24.2987 35.333 24.6667 35.333C25.0347 35.333 25.3333 35.6317 25.3333 35.9997C25.3333 37.113 28.376 38.6663 33.3333 38.6663C38.2907 38.6663 41.3333 37.113 41.3333 35.9997C41.3333 35.6317 41.632 35.333 42 35.333C42.368 35.333 42.6667 35.6317 42.6667 35.9997C42.6667 38.597 37.8587 39.9997 33.3333 39.9997Z"
      fill="#3D663D"
    />
    <path
      d="M33.3333 35.9997C28.808 35.9997 24 34.597 24 31.9997C24 31.6317 24.2987 31.333 24.6667 31.333C25.0347 31.333 25.3333 31.6317 25.3333 31.9997C25.3333 33.113 28.376 34.6663 33.3333 34.6663C38.2907 34.6663 41.3333 33.113 41.3333 31.9997C41.3333 31.6317 41.632 31.333 42 31.333C42.368 31.333 42.6667 31.6317 42.6667 31.9997C42.6667 34.597 37.8587 35.9997 33.3333 35.9997Z"
      fill="#3D663D"
    />
    <path
      d="M33.3333 47.9997C28.808 47.9997 24 46.597 24 43.9997C24 43.6317 24.2987 43.333 24.6667 43.333C25.0347 43.333 25.3333 43.6317 25.3333 43.9997C25.3333 45.113 28.376 46.6664 33.3333 46.6664C34.0587 46.6664 34.6907 46.637 35.2627 46.577C35.624 46.537 35.9573 46.8037 35.996 47.169C36.0347 47.5344 35.7693 47.8637 35.404 47.9024C34.7827 47.969 34.1053 47.9997 33.3333 47.9997Z"
      fill="#3D663D"
    />
    <path
      d="M33.3333 51.9997C28.808 51.9997 24 50.597 24 47.9997C24 47.6317 24.2987 47.333 24.6667 47.333C25.0347 47.333 25.3333 47.6317 25.3333 47.9997C25.3333 49.113 28.376 50.6664 33.3333 50.6664C34.0587 50.6664 34.6907 50.637 35.2627 50.577C35.624 50.5304 35.9573 50.8037 35.996 51.169C36.0347 51.5344 35.7693 51.8637 35.404 51.9024C34.7827 51.969 34.1053 51.9997 33.3333 51.9997Z"
      fill="#3D663D"
    />
    <path
      d="M33.3333 43.9997C28.808 43.9997 24 42.597 24 39.9997C24 39.6317 24.2987 39.333 24.6667 39.333C25.0347 39.333 25.3333 39.6317 25.3333 39.9997C25.3333 41.113 28.376 42.6663 33.3333 42.6663C34.0587 42.6663 34.6907 42.637 35.2627 42.577C35.624 42.5343 35.9573 42.8023 35.996 43.169C36.0347 43.5343 35.7693 43.8637 35.404 43.9023C34.7827 43.969 34.1053 43.9997 33.3333 43.9997Z"
      fill="#3D663D"
    />
    <path
      d="M33.3333 32C28.808 32 24 30.5973 24 28C24 25.4027 28.808 24 33.3333 24C37.8587 24 42.6667 25.4027 42.6667 28C42.6667 30.5973 37.8587 32 33.3333 32ZM33.3333 25.3333C28.376 25.3333 25.3333 26.8867 25.3333 28C25.3333 29.1133 28.376 30.6667 33.3333 30.6667C38.2907 30.6667 41.3333 29.1133 41.3333 28C41.3333 26.8867 38.2907 25.3333 33.3333 25.3333Z"
      fill="#3D663D"
    />
    <path
      d="M24.6667 48.6663C24.2987 48.6663 24 48.3677 24 47.9997V27.9997C24 27.6317 24.2987 27.333 24.6667 27.333C25.0347 27.333 25.3333 27.6317 25.3333 27.9997V47.9997C25.3333 48.3677 25.0347 48.6663 24.6667 48.6663Z"
      fill="#3D663D"
    />
    <path
      d="M42.0002 36.6663C41.6322 36.6663 41.3335 36.3677 41.3335 35.9997V27.9997C41.3335 27.6317 41.6322 27.333 42.0002 27.333C42.3682 27.333 42.6668 27.6317 42.6668 27.9997V35.9997C42.6668 36.3677 42.3682 36.6663 42.0002 36.6663Z"
      fill="#3D663D"
    />
  </g>
  <defs>
    <clipPath id="clip0">
      <rect width="32" height="32" fill="white" transform="translate(24 24)" />
    </clipPath>
  </defs>
</svg>
