<svg width="80" height="80" viewBox="0 0 80 80" fill="none" xmlns="http://www.w3.org/2000/svg">
  <path
    d="M22 40L28.6667 46.6667L42 33.3333M62 40C62 43.9397 61.224 47.8407 59.7164 51.4805C58.2087 55.1203 55.999 58.4274 53.2132 61.2132C50.4274 63.999 47.1203 66.2087 43.4805 67.7164C39.8407 69.224 35.9397 70 32 70C28.0603 70 24.1593 69.224 20.5195 67.7164C16.8797 66.2087 13.5726 63.999 10.7868 61.2132C8.00104 58.4274 5.79125 55.1203 4.28361 51.4805C2.77597 47.8407 2 43.9397 2 40C2 32.0435 5.1607 24.4129 10.7868 18.7868C16.4129 13.1607 24.0435 10 32 10C39.9565 10 47.5871 13.1607 53.2132 18.7868C58.8393 24.4129 62 32.0435 62 40Z"
    stroke="#3D663D"
    strokeWidth="2"
    strokeLinecap="round"
    strokeLinejoin="round"
  />
</svg>
