<svg width="40" height="40" viewBox="0 0 40 40" fill="none" xmlns="http://www.w3.org/2000/svg">
<rect width="40" height="40" rx="20" fill="#EDFFED"/>
<path d="M22.6667 16.6667C22.6667 17.3739 22.3857 18.0522 21.8856 18.5523C21.3855 19.0524 20.7073 19.3333 20 19.3333C19.2928 19.3333 18.6145 19.0524 18.1144 18.5523C17.6143 18.0522 17.3333 17.3739 17.3333 16.6667C17.3333 15.9594 17.6143 15.2811 18.1144 14.781C18.6145 14.281 19.2928 14 20 14C20.7073 14 21.3855 14.281 21.8856 14.781C22.3857 15.2811 22.6667 15.9594 22.6667 16.6667V16.6667ZM20 21.3333C18.7623 21.3333 17.5753 21.825 16.7002 22.7002C15.825 23.5753 15.3333 24.7623 15.3333 26H24.6667C24.6667 24.7623 24.175 23.5753 23.2998 22.7002C22.4247 21.825 21.2377 21.3333 20 21.3333V21.3333Z" stroke="#3D663D" stroke-linecap="round" stroke-linejoin="round"/>
</svg>
