<svg width="24" height="24" viewBox="0 0 24 24" fill="none" xmlns="http://www.w3.org/2000/svg">
  <path
    d="M20.5385 2.07715H3.46153C1.55283 2.07715 0 3.62998 0 5.53868V18.4617C0 20.3704 1.55283 21.9233 3.46153 21.9233H20.5385C22.4472 21.9233 24 20.3704 24 18.4617V5.53868C24 3.62998 22.4472 2.07715 20.5385 2.07715ZM22.6154 14.0771H17.5385C16.3933 14.0771 15.4615 13.1455 15.4615 12.0002C15.4615 10.855 16.3932 9.92327 17.5385 9.92327H22.6154V14.0771ZM22.6154 8.53868H17.5385C15.6298 8.53868 14.0769 10.0915 14.0769 12.0002C14.0769 13.9089 15.6298 15.4617 17.5385 15.4617H22.6154V18.4617C22.6154 19.6069 21.6837 20.5387 20.5385 20.5387H3.46153C2.31633 20.5387 1.38459 19.607 1.38459 18.4617V5.53868C1.38459 4.39348 2.31628 3.46174 3.46153 3.46174H20.5385C21.6837 3.46174 22.6154 4.39343 22.6154 5.53868V8.53868Z"
    fill="#4D4D4D"
  />
  <path
    d="M18.4611 11.3076H17.538C17.1556 11.3076 16.8457 11.6176 16.8457 11.9999C16.8457 12.3823 17.1557 12.6922 17.538 12.6922H18.4611C18.8434 12.6922 19.1534 12.3822 19.1534 11.9999C19.1534 11.6176 18.8434 11.3076 18.4611 11.3076Z"
    fill="#4D4D4D"
  />
</svg>
